HIERARCHY
ROOT pelvis
{
  OFFSET 0 100 0
  CHANNELS 6 Xposition Yposition Zposition Zrotation Xrotation Yrotation
  JOINT pelvis_right_femur
  {
    OFFSET -10.78128 -3.44521 -0.5502486
    CHANNELS 3 Zrotation Xrotation Yrotation
    JOINT right_femur_tibia
    {
      OFFSET -0.8047443 -44.0398 -0.1307829
      CHANNELS 3 Zrotation Xrotation Yrotation
      JOINT right_tibia_foot
      {
        OFFSET 3.006224 -47.83518 -5
        CHANNELS 3 Zrotation Xrotation Yrotation
        End Site
        {
          OFFSET 0 -5 15
        }
      }
    }
  }
  JOINT pelvis_left_femur
  {
    OFFSET 10.78128 -3.44521 -0.5502486
    CHANNELS 3 Zrotation Xrotation Yrotation
    JOINT left_femur_tibia
    {
      OFFSET 0.8047443 -44.0398 -0.1307829
      CHANNELS 3 Zrotation Xrotation Yrotation
      JOINT left_tibia_foot
      {
        OFFSET -4.370144 -48.10324 -4.275266
        CHANNELS 3 Zrotation Xrotation Yrotation
        End Site
        {
          OFFSET 0 -5 15
        }
      }
    }
  }
  JOINT pelvis_spine1
  {
    OFFSET 0 6.468898 -3.129235
    CHANNELS 3 Zrotation Xrotation Yrotation
    JOINT spine1
    {
      OFFSET 0 23.15396 4.99043
      CHANNELS 3 Zrotation Xrotation Yrotation
      JOINT spine2
      {
        OFFSET 0 20.79997 -5.064912
        CHANNELS 3 Zrotation Xrotation Yrotation
        JOINT neck
        {
          OFFSET 0 14.38658 9.616178
          CHANNELS 3 Zrotation Xrotation Yrotation
          End Site
          {
            OFFSET 0 20 0
          }
        }
      }
      JOINT right_manubrium
      {
        OFFSET -5.722621 16.35077 3.967754
        CHANNELS 3 Zrotation Xrotation Yrotation
        JOINT right_clavicle
        {
          OFFSET -13.16364 1.694482 -4.693211
          CHANNELS 3 Zrotation Xrotation Yrotation
          JOINT right_humerus
          {
            OFFSET -28.5034 -0.3100689 -2.792744
            CHANNELS 3 Zrotation Xrotation Yrotation
            JOINT right_radius
            {
              OFFSET -25.15693 0.02248979 -1.271978
              CHANNELS 3 Zrotation Xrotation Yrotation
              End Site
              {
                OFFSET -15 0 0
              }
            }
          }
        }
      }
      JOINT left_manubrium
      {
        OFFSET 5.722621 16.35077 3.967754
        CHANNELS 3 Zrotation Xrotation Yrotation
        JOINT left_clavicle
        {
          OFFSET 13.16364 1.694482 -4.693211
          CHANNELS 3 Zrotation Xrotation Yrotation
          JOINT left_humerus
          {
            OFFSET 29.39168 -1.063119 -2.237045
            CHANNELS 3 Zrotation Xrotation Yrotation
            JOINT left_radius
            {
              OFFSET 24.59957 -0.9528479 0.9047498
              CHANNELS 3 Zrotation Xrotation Yrotation
              End Site
              {
                OFFSET 15 -0 -0
              }
            }
          }
        }
      }
    }
  }
}
MOTION
Frames: 23
Frame Time: 0.0416666666667
0 103.5113 0 -0.210172 0.7024052 -0.08232965 5.160711 -20.18549 10.29953 -0 35.62188 -0 -6.979049 -16.9121 -3.765397 -6.251503 10.87294 -22.76266 -0 5.643165 -0 8.395827 -18.56206 26.71768 -3.156542 -3.9564 4.57277 2.953517 9.038686 -8.052986 1.728707 21.76738 6.189322 2.571005 -25.44258 9.82974 5.944779 -19.5592 11.07447 85.31749 34.84636 -18.79962 -0 0 16.77993 -6.021927 7.905849 3.047745 7.027 -20.14026 0.4540963 -94.83376 24.36413 22.21284 0 0 -12.79806 11.55606 19.11859 0.5883808
0.2387511 103.2486 1.880227 -0.5348146 1.017595 -0.1515623 5.643819 -21.974 9.993579 -0 34.34326 -0 -6.985283 -15.51636 -3.606915 -5.970375 11.06131 -22.05011 -0 5.945186 -0 7.786573 -19.22358 26.00155 -2.985492 -3.67573 4.430099 3.093062 9.114512 -8.254882 1.63404 21.43158 6.404417 2.736779 -25.75056 9.827795 5.883303 -19.44591 11.15512 85.4407 34.65429 -19.08503 -0 0 16.50366 -6.571132 8.21025 3.326813 7.277159 -20.5159 0.4974718 -94.47555 23.88972 21.82544 0 0 -13.41371 11.6478 18.69957 0.407295
0.4905486 102.8701 4.229641 -1.110069 1.684017 -0.1662423 6.502033 -25.40115 9.341923 -0 31.35262 -0 -7.001819 -12.69707 -3.24744 -5.499773 11.47814 -20.58976 -0 6.755137 -0 6.602173 -20.42109 24.45235 -2.669117 -3.112953 4.180144 3.364595 9.258852 -8.624825 1.462223 20.75049 6.823625 3.059696 -26.37588 9.837251 5.721217 -19.19863 11.29257 85.76796 34.34716 -19.69405 -0 0 15.83789 -7.588014 8.787501 3.897565 7.719236 -21.22545 0.5270102 -93.65267 22.93288 20.95406 0 0 -14.83554 11.84609 17.64929 0.06325227
0.7572077 102.2816 7.049243 -1.384752 1.754634 -0.1409756 6.649325 -27.68582 8.252329 -0 28.35211 -0 -7.029386 -9.77947 -3.005633 -5.245707 11.88018 -18.95837 -0 7.251478 -0 5.502768 -21.35467 22.91265 -2.455936 -2.492615 3.977804 3.459986 9.503067 -8.85705 1.301975 20.29283 7.168997 3.276411 -26.66528 9.766238 5.221595 -19.06812 11.39119 86.51198 33.63089 -20.2582 -0 0 14.87212 -9.020553 9.195506 4.756337 7.940074 -21.95625 0.1583743 -92.40925 22.05551 19.69933 0 0 -16.7704 11.67188 16.3429 0.2163972
1.041724 101.4371 10.45675 -1.488743 1.616376 -0.04540622 6.383224 -29.73911 6.688512 -0 24.32405 -0 -6.969363 -6.413021 -2.809088 -5.129294 12.41049 -16.93587 -0 7.797288 -0 4.208484 -22.3124 21.0408 -2.294483 -1.779005 3.806252 3.485136 9.813375 -9.059208 1.126276 19.85027 7.526986 3.484309 -26.77576 9.621568 4.497873 -18.90917 11.48187 87.59722 32.67418 -20.97513 -0 0 13.52228 -10.85978 9.598217 5.86952 8.111546 -22.83983 -0.4684409 -90.71671 21.04634 17.94674 0 0 -19.47844 11.26527 14.62175 0.6436288
1.343081 100.2842 14.54331 -1.322789 1.234839 0.1458753 5.594606 -31.17898 4.658758 -0 19.28882 -0 -6.716975 -2.91863 -2.747455 -5.226425 13.08226 -14.64026 -0 8.337803 -0 2.741178 -23.20698 18.93678 -2.233565 -1.071415 3.707443 3.408032 10.15809 -9.195751 0.9473497 19.49005 7.846572 3.656661 -26.57974 9.367027 3.591098 -18.70207 11.5594 88.99178 31.51001 -21.84706 -0 0 11.81557 -13.02501 9.956083 7.158931 8.226117 -23.83861 -1.352045 -88.66562 19.98328 15.73148 0 0 -22.93549 10.54671 12.61852 1.416178
1.657247 98.78725 19.41875 -0.8069751 0.6408122 0.4776149 4.284729 -31.76811 2.190048 -0 13.08535 -0 -6.106989 0.566227 -2.930191 -5.583679 13.96671 -12.10367 -0 8.915431 -0 0.9881381 -23.97152 16.55962 -2.292142 -0.480182 3.708758 3.207764 10.50452 -9.246654 0.7639523 19.23841 8.084048 3.779948 -25.97702 8.946085 2.548898 -18.40408 11.63401 90.69186 30.15216 -22.94625 -0 0 9.740922 -15.48368 10.27569 8.566118 8.305053 -24.9445 -2.484111 -86.31968 18.88458 13.06212 0 0 -27.21471 9.392666 10.41883 2.638088
1.971813 97.00548 25.14519 0.01216404 0.04859846 1.00101 2.856098 -31.30317 -0.1753301 -0 6.558068 -0 -4.992656 3.589906 -3.484002 -6.122419 15.09338 -9.671688 -0 9.747362 -0 -1.056412 -24.28031 14.05371 -2.399702 -0.2625996 3.808841 2.903246 10.76858 -9.203981 0.5837377 19.10148 8.149945 3.819961 -25.01975 8.336899 1.599676 -18.00608 11.72376 92.49001 28.82966 -24.28559 -0 0 7.590903 -17.83206 10.57721 9.822558 8.364232 -25.96841 -3.65939 -84.08661 17.87331 10.4093 0 0 -31.79298 7.789859 8.374083 4.295838
2.253175 95.23871 31.66716 0.6461121 0.01007804 1.709216 2.444996 -30.22912 -1.12991 -0 2.307931 -0 -3.558025 5.623796 -4.36229 -6.392068 16.3783 -8.037745 -0 11.95342 -0 -3.201425 -23.29849 11.74277 -2.216585 -0.7151946 3.882152 2.649771 10.85641 -9.164642 0.4072623 18.91602 7.986345 3.751853 -24.26026 7.648381 1.231091 -17.58121 11.86215 93.91128 28.20754 -25.79157 -0 0 6.075661 -19.11222 10.9661 10.4407 8.330582 -26.44777 -4.373628 -82.76331 17.19073 8.986036 0 0 -35.20567 6.033883 6.957735 6.123914
2.447012 94.10425 38.76557 0.1414758 0.9203856 2.442101 4.393589 -29.39992 0.8088333 -0 4.081271 -0 -2.651987 6.363534 -5.147059 -5.6119 17.19046 -7.820863 -0 18.38955 -0 -4.865915 -19.63823 10.14731 -1.209156 -1.716273 3.726778 2.735962 10.88515 -9.374801 0.2172907 18.35626 7.713653 3.62082 -24.67782 7.156308 1.987224 -17.34555 12.1071 94.39957 29.2646 -27.14873 -0 0 5.949798 -18.38841 11.59505 10.16724 7.755096 -25.83022 -4.22364 -83.02357 17.10304 10.25477 0 0 -35.52061 4.718205 6.164154 7.786058
2.581592 94.12017 46.17684 -1.421405 1.721173 2.907357 7.782152 -27.72951 4.838968 -0 11.04005 -0 -2.648963 5.886842 -5.449659 -3.940081 15.9035 -8.269863 -0 31.24082 -0 -5.543705 -13.15264 9.680542 0.3518021 -2.372569 3.615942 3.158104 11.3886 -9.873557 0.03273907 17.48626 7.588196 3.604182 -26.05812 6.965043 3.685194 -17.51335 12.54552 93.89594 31.79021 -27.77575 -0 0 6.867827 -16.87268 12.50749 9.891843 6.111223 -24.43117 -3.875297 -84.17263 17.48757 13.598 0 0 -33.05936 3.919086 4.939406 9.54354
2.815642 95.10372 53.7063 -2.200893 0.8120957 2.745935 9.223713 -23.13824 7.601812 -0 16.2803 -0 -2.032083 4.79392 -5.547014 -2.829246 11.72741 -7.687332 -0 45.98457 -0 -5.784025 -6.961183 10.30487 1.168453 -2.152017 4.260736 3.351436 12.65724 -10.15448 -0.04479438 16.95349 7.583545 3.773967 -26.4567 6.752835 5.230913 -18.04414 13.13707 92.80906 33.4073 -27.38343 -0 0 7.901023 -17.42659 13.54872 10.74368 4.199042 -23.47689 -4.265699 -84.77927 17.73887 16.24206 0 0 -30.74642 3.060058 2.798721 11.62914
3.16166 96.56026 61.15028 -1.608924 -1.501666 1.983469 8.318787 -16.70968 8.286118 -0 17.10803 -0 -0.176158 3.693222 -5.743265 -2.563529 6.295943 -6.046574 -0 56.46657 -0 -6.36947 -3.657505 11.6304 0.9478804 -1.529707 5.549579 3.007722 14.09507 -9.85947 0.05489242 17.05338 7.465596 3.954377 -25.20377 6.372622 5.901252 -18.6455 13.60959 91.513 32.68441 -26.27974 -0 0 8.983299 -20.07202 14.30992 12.21675 3.191957 -23.25341 -5.04962 -84.87855 17.64938 17.1982 0 0 -29.52782 2.128513 0.8665835 13.32834
3.489708 98.11474 68.27444 -0.4836699 -4.058791 0.9459303 6.742358 -10.16351 8.02309 -0 15.43175 -0 1.53718 2.010119 -5.813104 -2.540627 0.7246603 -4.443657 -0 61.9487 -0 -7.257671 -2.966444 13.17572 0.2660765 -0.8104404 6.885273 2.330552 14.89986 -8.989945 0.3409702 17.77032 7.127014 3.984827 -23.12193 6.015863 5.757667 -19.02151 13.74055 90.10824 30.56003 -24.54137 -0 0 10.31474 -22.55181 14.46402 13.16355 3.115868 -23.08246 -5.488067 -85.32924 17.83778 17.35188 0 0 -28.19561 1.33854 0.1954749 14.18679
3.723817 99.47741 74.90803 0.4812499 -5.908273 -0.1388658 5.477276 -4.436046 7.486587 -0 13.07752 -0 2.030099 -0.6671339 -5.448141 -2.351549 -4.969843 -3.498773 -0 63.16481 -0 -7.927166 -3.736527 14.52328 -0.4400525 -0.06941952 7.915492 1.623026 14.79395 -7.764702 0.7074059 18.85738 6.640419 3.832624 -21.16674 5.811895 5.202076 -19.20571 13.58998 88.51616 28.62601 -22.08158 -0 0 12.01162 -23.47674 14.09085 13.23527 3.515746 -22.53784 -5.294197 -86.43027 18.5949 17.63777 0 0 -26.21759 0.7769553 0.8218952 14.31071
3.87647 100.4112 81.01509 1.021518 -6.602485 -1.159979 4.755546 0.1892427 6.844308 -0 10.95658 -0 1.320991 -4.140887 -4.557679 -1.769756 -10.93499 -3.121098 -0 60.473 -0 -7.986444 -4.899914 15.4781 -0.986701 0.5928071 8.525865 1.082883 13.98878 -6.4939 0.9907866 19.98392 6.158764 3.568831 -19.81336 5.71857 4.676838 -19.37502 13.35643 86.50672 27.85441 -18.90094 -0 0 14.06788 -22.98122 13.47968 12.85588 3.989224 -21.64468 -4.616764 -87.91017 19.69382 18.4153 0 0 -23.86695 0.5079892 2.248861 13.9397
4.005807 100.7386 86.71531 1.158582 -6.277412 -2.046644 4.44125 3.968356 6.115767 -0 9.301264 -0 0.1775266 -7.848882 -3.29237 -0.6734003 -17.01969 -2.781887 -0 54.0434 -0 -7.417733 -5.823847 16.13566 -1.314773 1.045157 8.765597 0.7167858 12.91488 -5.424789 1.077278 20.87319 5.814912 3.293026 -19.03382 5.629489 4.347614 -19.73103 13.17248 84.02093 28.16272 -15.20413 -0 0 16.42295 -22.12173 12.87959 12.68563 4.351281 -20.65516 -3.790809 -89.29509 20.68575 19.57272 0 0 -21.6918 0.5147248 3.829979 13.34668
4.175014 100.3831 92.25073 0.9848169 -5.336102 -2.778739 4.323493 7.242635 5.364092 -0 8.089834 -0 -0.6060728 -11.21747 -1.865614 0.9234301 -22.62853 -2.012161 -0 44.47524 -0 -6.493265 -6.308013 16.65032 -1.389851 1.194397 8.764514 0.4367763 11.93594 -4.708046 0.9420357 21.33133 5.694002 3.074715 -18.66791 5.506632 4.101169 -20.40777 13.03251 81.36616 28.92253 -11.46177 -0 0 18.96053 -21.88059 12.40493 13.13448 4.565755 -19.78562 -3.097831 -90.21235 21.27172 20.89617 0 0 -20.1438 0.6510626 4.961777 12.88775
4.427999 99.40895 97.90139 0.6067076 -4.16992 -3.406606 4.214592 10.16006 4.689087 -0 7.44512 -0 -0.7255311 -13.90843 -0.4815225 2.675608 -26.92212 -0.8926485 -0 33.52651 -0 -5.574131 -6.411585 17.06045 -1.247862 1.034874 8.659001 0.1983412 11.17563 -4.3699 0.6756831 21.34397 5.783665 2.932286 -18.61199 5.407625 3.790406 -21.30385 12.83946 79.02802 29.59045 -8.245395 -0 0 21.39593 -22.48188 12.0194 14.12247 4.622362 -19.06108 -2.646848 -90.62554 21.5236 22.24755 0 0 -19.1869 0.6985805 5.388445 12.88513
4.781896 98.03343 103.8776 0.2332928 -3.136454 -4.001516 3.913526 12.78193 4.190553 -0 7.896093 -0 -0.3429257 -15.62422 0.6156324 3.831791 -29.38797 -0.1230184 -0 24.11616 -0 -4.872357 -6.298435 17.37125 -1.104816 0.633775 8.577658 0.0168629 10.58978 -4.267345 0.4772071 21.13906 5.928509 2.861809 -18.69968 5.38897 3.47544 -22.04742 12.54846 77.32179 29.89556 -5.898261 -0 0 23.29619 -23.48427 11.66 15.20108 4.517182 -18.36272 -2.40652 -90.86615 21.71187 23.50396 0 0 -18.14169 0.5081471 5.396074 13.3557
5.238317 96.57539 110.2683 0.1325487 -2.551533 -4.58417 3.248587 15.14738 3.969565 -0 10.26037 -0 0.2861574 -15.87369 1.194778 3.751498 -30.16182 -0.3517049 -0 18.65603 -0 -4.349876 -6.158942 17.64058 -1.251283 0.07369156 8.625379 -0.1210493 10.17113 -4.178009 0.5202104 20.99248 5.929926 2.858756 -18.6844 5.425204 3.362127 -22.3054 12.24836 76.3188 29.7416 -4.442837 -0 0 24.38144 -24.40545 11.36532 15.94944 4.28859 -17.61002 -2.318946 -91.29171 21.92665 24.55271 0 0 -16.30625 0.09508185 5.474642 13.99907
5.798473 95.36195 117.0728 0.4031625 -2.532338 -5.089621 2.230608 17.03665 4.098663 -0 15.09988 -0 1.067597 -14.36136 1.184889 2.469224 -29.59778 -1.533439 -0 17.29515 -0 -3.909068 -6.180106 17.83736 -1.745452 -0.5657899 8.828246 -0.2880111 9.999663 -4.010145 0.7898731 20.93307 5.746838 2.895783 -18.50062 5.47343 3.504106 -22.12198 12.04475 76.07827 29.17838 -3.863413 -0 0 24.76468 -25.07053 11.22216 16.23703 3.996429 -16.85797 -2.35829 -91.89842 22.0213 25.41974 0 0 -13.83846 -0.4146611 5.703067 14.58169
6.458086 94.6416 124.2249 0.9249165 -2.996694 -5.387531 1.062749 17.98469 4.521461 -0 22.27748 -0 2.002717 -11.45873 0.6566889 0.4965366 -27.85986 -3.17866 -0 18.49149 -0 -3.584671 -6.510523 17.83739 -2.388258 -1.170956 9.098104 -0.5438461 10.09444 -3.823449 1.132473 20.83392 5.504844 2.919067 -18.27203 5.550245 3.747784 -21.7556 11.93913 76.67181 28.35366 -4.188176 -0 0 24.72698 -25.45145 11.24907 16.12034 3.700519 -16.20758 -2.502147 -92.40604 21.93181 26.13287 0 0 -11.53946 -0.9149841 5.777671 15.1103
